<?xml version="1.0" encoding="utf-8"?>
<!-- Generator: Adobe Illustrator 24.0.1, SVG Export Plug-In . SVG Version: 6.00 Build 0)  -->
<svg version="1.1" id="Layer_1" xmlns="http://www.w3.org/2000/svg" xmlns:xlink="http://www.w3.org/1999/xlink" x="0px" y="0px"
	 viewBox="0 0 22.2 22.2" style="enable-background:new 0 0 22.2 22.2;" xml:space="preserve">
<style type="text/css">
	.st0{fill:#4E4E4E;}
</style>
<path id="Close" class="st0" d="M21.2,22.2c-0.3,0-0.5-0.1-0.7-0.3l-9.4-9.4L1.7,22c-0.4,0.4-1,0.4-1.4,0s-0.4-1,0-1.4l9.4-9.4
	L0.3,1.7c-0.4-0.4-0.4-1,0-1.4s1-0.4,1.4,0l9.4,9.4l9.4-9.4c0.4-0.4,1-0.4,1.4,0s0.4,1,0,1.4l-9.4,9.4l9.4,9.4c0.4,0.4,0.4,1,0,1.4
	C21.8,22.1,21.5,22.2,21.2,22.2z"/>
</svg>
